# xmcd
#
# Track frame offsets: 
#        150
#        25628
#        41338
#        60198
#        82022
#        100668
#        121478
#        135782
#        152343
#        174025
#        193328
#        213659
#        230177
#        247519
#        265663
#        287909
#        304074
#        320266
#        336018
#
# Disc length: 4670 seconds
#
# Revision: 2
# Processed by: cddbd v1.5.2PL0 Copyright (c) Steve Scherf et al.
# Submitted via: ExactAudioCopyFreeDBPlugin 1.0
#
DISCID=ef123c13
DTITLE=Various Artist - The Very Best Of Late Night Moves [Disc 3]
DYEAR=2007
DGENRE=Pop
TTITLE0=Tori Amos - Winter
TTITLE1=Kate Bush - This Woman's Work
TTITLE2=Katie Melua - The Closest Thing To Crazy
TTITLE3=Mazzy Star - Fade Into You
TTITLE4=Clare Bowditch and The Feeding Set - I Thought You Were God
TTITLE5=Nelly Furtado - Try
TTITLE6=Cocteau Twins - Fifty-Fifty Clown
TTITLE7=Jamelia - See It In A Boy's Eyes
TTITLE8=Tanita Tikaram - Twist In My Sobriety
TTITLE9=Dan Greenwood - Only One
TTITLE10=Artful Dodger featuring Michelle Escoffery - Think About Me
TTITLE11=Robyn Loau - She Devil
TTITLE12=Kasey Chambers - Surrender
TTITLE13=Natalie Merchant - Carnival
TTITLE14=K.D. Lang - Hallelujah
TTITLE15=Jessica - How Will I Know (Who You Are)
TTITLE16=Kate DeAraugo - Maybe Tonight
TTITLE17=Bette Midler - The Rose
TTITLE18=The Source featuring Candi Staton - You Got The Love (New Voy
TTITLE18=ager Radio Mix)
EXTD=
EXTT0=
EXTT1=
EXTT2=
EXTT3=
EXTT4=
EXTT5=
EXTT6=
EXTT7=
EXTT8=
EXTT9=
EXTT10=
EXTT11=
EXTT12=
EXTT13=
EXTT14=
EXTT15=
EXTT16=
EXTT17=
EXTT18=
PLAYORDER=
